# xmcd CD database file
#
# Track frame offsets:
#	150
#	12795
#	22481
#	35782
#	50741
#	64023
#	75408
#	90159
#	103874
#	117101
#	130599
#	143412
#	156573
#	170541
#	182567
#	193494
#
# Disc length: 2772 seconds
#
# Revision: 0
# Processed by: cddbd v1.5PL3 Copyright (c) Steve Scherf et al.
# Submitted via: CDex 1.51
#
DISCID=d80ad210
DTITLE=Billie Holiday - Embraceable You
DYEAR=1900
DGENRE=Jazz
TTITLE0=I Gotta Right To Sing The Blues
TTITLE1=I'm Gonna Lock My Heart And Throw Away The Key
TTITLE2=Swing, Brother, Swing
TTITLE3=Lover Come Back To Me
TTITLE4=I'll Get By
TTITLE5=Having Myself A Time
TTITLE6=Embraceable You
TTITLE7=Some Other Spring
TTITLE8=Don't Explain
TTITLE9=Body And Soul
TTITLE10=Everything Happens For The Best
TTITLE11=Laughing At Life
TTITLE12=The Man I Love
TTITLE13=He's Funny That Way
TTITLE14=If I Were You
TTITLE15=Fine And Mellow
EXTD=
EXTT0=
EXTT1=
EXTT2=
EXTT3=
EXTT4=
EXTT5=
EXTT6=
EXTT7=
EXTT8=
EXTT9=
EXTT10=
EXTT11=
EXTT12=
EXTT13=
EXTT14=
EXTT15=
PLAYORDER=
